<svg xmlns="http://www.w3.org/2000/svg" enable-background="new 0 0 48 48" viewBox="0 0 48 48" id="trash-can"><path d="M40,15c0-0.84-0.53-1.56-1.27-1.86l-3.81-9.52C34.78,3.25,34.41,3,34,3H14c-0.41,0-0.78,0.25-0.93,0.63l-3.81,9.52
		C8.53,13.44,8,14.16,8,15v2c0,0.78,0.45,1.45,1.11,1.78l3.9,25.37C13.09,44.64,13.51,45,14,45h20c0.49,0,0.91-0.36,0.99-0.85
		l3.9-25.37c0.65-0.33,1.11-1,1.11-1.78V15z M18.5,5h11v3h-11V5z M14.68,5h1.82v4c0,0.55,0.45,1,1,1h13c0.55,0,1-0.45,1-1V5h1.82
		l3.2,8H11.48L14.68,5z M33.14,43H14.86l-3.69-24h25.67L33.14,43z M10,17v-2h28c0,0,0,0,0,0l0,2H10z"></path><path d="M19 40c.04 0 .08 0 .13-.01.55-.07.94-.57.87-1.12l-2-16c-.07-.55-.57-.94-1.12-.87-.55.07-.94.57-.87 1.12l2 16C18.07 39.63 18.5 40 19 40zM28.88 39.99C28.92 40 28.96 40 29 40c.5 0 .93-.37.99-.88l2-16c.07-.55-.32-1.05-.87-1.12-.55-.07-1.05.32-1.12.87l-2 16C27.94 39.42 28.33 39.92 28.88 39.99zM24 40c.55 0 1-.45 1-1V23c0-.55-.45-1-1-1s-1 .45-1 1v16C23 39.55 23.45 40 24 40z"></path></svg>