<svg xmlns="http://www.w3.org/2000/svg" width="32" height="32" id="box"><g fill-rule="evenodd" color="#000" font-family="sans-serif" font-weight="400"><path style="line-height:normal;text-indent:0;text-align:start;text-decoration-line:none;text-decoration-style:solid;text-decoration-color:#000;text-transform:none;block-progression:tb;isolation:auto;mix-blend-mode:normal" fill="#ec8282" fill-opacity=".973" d="M205.01 1079.264a.547.547 0 0 0-.217 1.052l2.826 1.21a.547.547 0 1 0 .43-1.007l-2.826-1.209a.547.547 0 0 0-.213-.047zm5.912 2.527a.547.547 0 0 0-.217 1.053l2.55 1.091a.547.547 0 0 0 .433-1.005l-2.553-1.092a.547.547 0 0 0-.213-.047z" overflow="visible" transform="translate(-171.358 -968.638) scale(.91394)"></path><path style="line-height:normal;text-indent:0;text-align:start;text-decoration-line:none;text-decoration-style:solid;text-decoration-color:#000;text-transform:none;block-progression:tb;isolation:auto;mix-blend-mode:normal" fill="#3b4659" d="M219.076 1078.176a.547.547 0 0 0-.195.047l-8.293 3.545a.547.547 0 1 0 .43 1.006l8.293-3.545a.547.547 0 0 0-.235-1.053zm-2.931-1.381a.547.547 0 0 0-.198.047l-8.299 3.549a.547.547 0 1 0 .43 1.006l8.3-3.55a.547.547 0 0 0-.233-1.052z" overflow="visible" transform="translate(-171.358 -968.638) scale(.91394)"></path><path style="line-height:normal;text-indent:0;text-align:start;text-decoration-line:none;text-decoration-style:solid;text-decoration-color:#000;text-transform:none;block-progression:tb;isolation:auto;mix-blend-mode:normal" fill="#ec8282" fill-opacity=".973" d="M188.05 1079.264a.547.547 0 0 0-.218 1.052l2.826 1.21a.547.547 0 0 0 .432-1.007l-2.826-1.209a.547.547 0 0 0-.213-.047zm5.913 2.527a.547.547 0 0 0-.217 1.053l2.55 1.091a.547.547 0 0 0 .433-1.005l-2.553-1.092a.547.547 0 0 0-.213-.047z" overflow="visible" transform="translate(-171.358 -968.638) scale(.91394)"></path><path style="line-height:normal;text-indent:0;text-align:start;text-decoration-line:none;text-decoration-style:solid;text-decoration-color:#000;text-transform:none;block-progression:tb;isolation:auto;mix-blend-mode:normal" fill="#3b4659" d="M202.117 1078.176a.547.547 0 0 0-.195.047l-8.293 3.545a.547.547 0 1 0 .43 1.006l8.293-3.545a.547.547 0 0 0-.235-1.053zm-2.931-1.381a.547.547 0 0 0-.198.047l-8.3 3.549a.547.547 0 0 0 .431 1.006l8.299-3.55a.547.547 0 0 0-.232-1.052z" overflow="visible" transform="translate(-171.358 -968.638) scale(.91394)"></path><path style="line-height:normal;text-indent:0;text-align:start;text-decoration-line:none;text-decoration-style:solid;text-decoration-color:#000;text-transform:none;block-progression:tb;isolation:auto;mix-blend-mode:normal" fill="#ec8282" fill-opacity=".973" d="M196.54 1064.76a.547.547 0 0 0-.218 1.053l2.826 1.208a.547.547 0 1 0 .43-1.005l-2.826-1.21a.547.547 0 0 0-.213-.046zm5.911 2.527a.547.547 0 0 0-.217 1.053l2.553 1.092a.547.547 0 1 0 .43-1.006l-2.553-1.092a.547.547 0 0 0-.213-.047z" overflow="visible" transform="translate(-171.358 -968.638) scale(.91394)"></path><path style="line-height:normal;text-indent:0;text-align:start;text-decoration-line:none;text-decoration-style:solid;text-decoration-color:#000;text-transform:none;block-progression:tb;isolation:auto;mix-blend-mode:normal" fill="#3b4659" d="M210.605 1063.672a.547.547 0 0 0-.195.047l-8.293 3.545a.547.547 0 1 0 .43 1.006l8.293-3.545a.547.547 0 0 0-.235-1.053zm-2.931-1.379a.547.547 0 0 0-.195.045l-8.301 3.549a.547.547 0 1 0 .43 1.006l8.3-3.547a.547.547 0 0 0-.234-1.053z" overflow="visible" transform="translate(-171.358 -968.638) scale(.91394)"></path><path style="line-height:normal;text-indent:0;text-align:start;text-decoration-line:none;text-decoration-style:solid;text-decoration-color:#000;text-transform:none;block-progression:tb;isolation:auto;mix-blend-mode:normal" fill="#ec8282" fill-opacity=".973" d="M196.512 1082.873a.547.547 0 0 0-.54.555v10.879a.547.547 0 1 0 1.094 0v-10.88a.547.547 0 0 0-.554-.554zm-8.479-3.627a.547.547 0 0 0-.539.555v10.879a.547.547 0 1 0 1.094 0v-10.88a.547.547 0 0 0-.555-.554zm16.96 0a.547.547 0 0 0-.54.555v10.879a.547.547 0 1 0 1.094 0v-10.88a.547.547 0 0 0-.555-.554z" overflow="visible" transform="translate(-171.358 -968.638) scale(.91394)"></path><path style="line-height:normal;text-indent:0;text-align:start;text-decoration-line:none;text-decoration-style:solid;text-decoration-color:#000;text-transform:none;block-progression:tb;isolation:auto;mix-blend-mode:normal" fill="#ec8282" fill-opacity=".973" d="M188.05 1090.143a.547.547 0 0 0-.218 1.052l8.465 3.62a.547.547 0 0 0 .432-1.006l-8.465-3.62a.547.547 0 0 0-.213-.047z" overflow="visible" transform="translate(-171.358 -968.638) scale(.91394)"></path><path style="line-height:normal;text-indent:0;text-align:start;text-decoration-line:none;text-decoration-style:solid;text-decoration-color:#000;text-transform:none;block-progression:tb;isolation:auto;mix-blend-mode:normal" fill="#ec8282" fill-opacity=".973" d="M204.973 1090.145a.547.547 0 0 0-.196.045l-8.465 3.619a.547.547 0 1 0 .43 1.006l8.465-3.62a.547.547 0 0 0-.234-1.05zm0-10.881a.547.547 0 0 0-.196.047l-8.465 3.619a.547.547 0 1 0 .43 1.006l8.465-3.62a.547.547 0 0 0-.234-1.052zm-8.479-3.627a.547.547 0 0 0-.197.047l-8.465 3.619a.547.547 0 0 0 .432 1.006l8.465-3.62a.547.547 0 0 0-.235-1.052z" overflow="visible" transform="translate(-171.358 -968.638) scale(.91394)"></path><path style="line-height:normal;text-indent:0;text-align:start;text-decoration-line:none;text-decoration-style:solid;text-decoration-color:#000;text-transform:none;block-progression:tb;isolation:auto;mix-blend-mode:normal" fill="#ec8282" fill-opacity=".973" d="M196.531 1075.637a.547.547 0 0 0-.219 1.053l8.465 3.619a.547.547 0 1 0 .43-1.006l-8.465-3.62a.547.547 0 0 0-.21-.046z" overflow="visible" transform="translate(-171.358 -968.638) scale(.91394)"></path><path style="line-height:normal;text-indent:0;text-align:start;text-decoration-line:none;text-decoration-style:solid;text-decoration-color:#000;text-transform:none;block-progression:tb;isolation:auto;mix-blend-mode:normal" fill="#3b4659" d="M190.934 1080.344a.547.547 0 0 0-.54.554v5.077a.547.547 0 0 0 .793.488l1.02-.508 1.182 1.773a.547.547 0 1 0 .91-.607l-1.45-2.176a.547.547 0 0 0-.7-.185l-.659.328v-4.19a.547.547 0 0 0-.556-.554z" overflow="visible" transform="translate(-171.358 -968.638) scale(.91394)"></path><path style="line-height:normal;text-indent:0;text-align:start;text-decoration-line:none;text-decoration-style:solid;text-decoration-color:#000;text-transform:none;block-progression:tb;isolation:auto;mix-blend-mode:normal" fill="#3b4659" d="M193.836 1081.793a.547.547 0 0 0-.54.555v5.076a.548.548 0 0 0 1.097 0v-5.076a.547.547 0 0 0-.557-.555z" overflow="visible" transform="translate(-171.358 -968.638) scale(.91394)"></path><path style="line-height:normal;text-indent:0;text-align:start;text-decoration-line:none;text-decoration-style:solid;text-decoration-color:#000;text-transform:none;block-progression:tb;isolation:auto;mix-blend-mode:normal" fill="#ec8282" fill-opacity=".973" d="M213.47 1082.873a.547.547 0 0 0-.538.555v10.879a.548.548 0 0 0 1.095 0v-10.88a.547.547 0 0 0-.556-.554zm-8.478-3.627a.547.547 0 0 0-.539.555v10.879a.547.547 0 1 0 1.094 0v-10.88a.547.547 0 0 0-.555-.554zm16.96 0a.547.547 0 0 0-.54.555v10.879a.547.547 0 1 0 1.094 0v-10.88a.547.547 0 0 0-.555-.554z" overflow="visible" transform="translate(-171.358 -968.638) scale(.91394)"></path><path style="line-height:normal;text-indent:0;text-align:start;text-decoration-line:none;text-decoration-style:solid;text-decoration-color:#000;text-transform:none;block-progression:tb;isolation:auto;mix-blend-mode:normal" fill="#ec8282" fill-opacity=".973" d="M205.01 1090.143a.547.547 0 0 0-.217 1.052l8.463 3.62a.547.547 0 1 0 .431-1.006l-8.464-3.62a.547.547 0 0 0-.213-.047z" overflow="visible" transform="translate(-171.358 -968.638) scale(.91394)"></path><path style="line-height:normal;text-indent:0;text-align:start;text-decoration-line:none;text-decoration-style:solid;text-decoration-color:#000;text-transform:none;block-progression:tb;isolation:auto;mix-blend-mode:normal" fill="#ec8282" fill-opacity=".973" d="M221.932 1090.145a.547.547 0 0 0-.196.045l-8.465 3.619a.547.547 0 1 0 .43 1.006l8.465-3.62a.547.547 0 0 0-.234-1.05zm0-10.881a.547.547 0 0 0-.196.047l-8.465 3.619a.547.547 0 1 0 .43 1.006l8.465-3.62a.547.547 0 0 0-.234-1.052zm-8.479-3.627a.547.547 0 0 0-.197.047l-8.463 3.619a.547.547 0 1 0 .43 1.006l8.465-3.62a.547.547 0 0 0-.235-1.052z" overflow="visible" transform="translate(-171.358 -968.638) scale(.91394)"></path><path style="line-height:normal;text-indent:0;text-align:start;text-decoration-line:none;text-decoration-style:solid;text-decoration-color:#000;text-transform:none;block-progression:tb;isolation:auto;mix-blend-mode:normal" fill="#ec8282" fill-opacity=".973" d="M213.49 1075.637a.547.547 0 0 0-.219 1.053l8.465 3.619a.547.547 0 1 0 .43-1.006l-8.465-3.62a.547.547 0 0 0-.21-.046z" overflow="visible" transform="translate(-171.358 -968.638) scale(.91394)"></path><path style="line-height:normal;text-indent:0;text-align:start;text-decoration-line:none;text-decoration-style:solid;text-decoration-color:#000;text-transform:none;block-progression:tb;isolation:auto;mix-blend-mode:normal" fill="#3b4659" d="M207.893 1080.344a.547.547 0 0 0-.538.554v5.077a.547.547 0 0 0 .791.488l1.02-.508 1.184 1.773a.547.547 0 1 0 .91-.607l-1.451-2.176a.547.547 0 0 0-.702-.185l-.658.33v-4.192a.547.547 0 0 0-.556-.554z" overflow="visible" transform="translate(-171.358 -968.638) scale(.91394)"></path><path style="line-height:normal;text-indent:0;text-align:start;text-decoration-line:none;text-decoration-style:solid;text-decoration-color:#000;text-transform:none;block-progression:tb;isolation:auto;mix-blend-mode:normal" fill="#3b4659" d="M210.795 1081.793a.547.547 0 0 0-.54.555v5.076a.548.548 0 0 0 1.097 0v-5.076a.547.547 0 0 0-.557-.555z" overflow="visible" transform="translate(-171.358 -968.638) scale(.91394)"></path><path style="line-height:normal;text-indent:0;text-align:start;text-decoration-line:none;text-decoration-style:solid;text-decoration-color:#000;text-transform:none;block-progression:tb;isolation:auto;mix-blend-mode:normal" fill="#ec8282" fill-opacity=".973" d="M219.154 1089.053a.547.547 0 0 0-.195.043l-3.576 1.48a.547.547 0 1 0 .418 1.012l3.576-1.48a.547.547 0 0 0-.223-1.055zm-1.465-1.637a.547.547 0 0 0-.197.047l-2.115.904a.547.547 0 1 0 .43 1.006l2.117-.904a.547.547 0 0 0-.235-1.053zM205 1068.369a.547.547 0 0 0-.54.555v10.879a.548.548 0 0 0 1.097 0v-10.88a.547.547 0 0 0-.557-.554zm-8.479-3.627a.547.547 0 0 0-.539.555v10.88a.547.547 0 1 0 1.094 0v-10.88a.547.547 0 0 0-.555-.555zm16.96 0a.547.547 0 0 0-.54.555v10.88a.547.547 0 1 0 1.094 0v-10.88a.547.547 0 0 0-.555-.555z" overflow="visible" transform="translate(-171.358 -968.638) scale(.91394)"></path><path style="line-height:normal;text-indent:0;text-align:start;text-decoration-line:none;text-decoration-style:solid;text-decoration-color:#000;text-transform:none;block-progression:tb;isolation:auto;mix-blend-mode:normal" fill="#ec8282" fill-opacity=".973" d="M196.484 1075.64a.547.547 0 0 0-.162 1.053l8.465 3.617a.547.547 0 1 0 .43-1.005l-8.465-3.618a.547.547 0 0 0-.268-.046z" overflow="visible" transform="translate(-171.358 -968.638) scale(.91394)"></path><path style="line-height:normal;text-indent:0;text-align:start;text-decoration-line:none;text-decoration-style:solid;text-decoration-color:#000;text-transform:none;block-progression:tb;isolation:auto;mix-blend-mode:normal" fill="#ec8282" fill-opacity=".973" d="M213.46 1075.64a.547.547 0 0 0-.194.048l-8.465 3.617a.547.547 0 1 0 .43 1.006l8.464-3.618a.547.547 0 0 0-.234-1.052zm0-10.878a.547.547 0 0 0-.194.045l-8.465 3.619a.547.547 0 1 0 .43 1.006l8.464-3.62a.547.547 0 0 0-.234-1.05zm-8.478-3.63a.547.547 0 0 0-.195.048l-8.465 3.619a.547.547 0 1 0 .43 1.006l8.465-3.62a.547.547 0 0 0-.235-1.052z" overflow="visible" transform="translate(-171.358 -968.638) scale(.91394)"></path><path style="line-height:normal;text-indent:0;text-align:start;text-decoration-line:none;text-decoration-style:solid;text-decoration-color:#000;text-transform:none;block-progression:tb;isolation:auto;mix-blend-mode:normal" fill="#ec8282" fill-opacity=".973" d="M205.02 1061.133a.547.547 0 0 0-.22 1.053l8.466 3.619a.547.547 0 1 0 .43-1.006l-8.466-3.62a.547.547 0 0 0-.21-.046z" overflow="visible" transform="translate(-171.358 -968.638) scale(.91394)"></path><path style="line-height:normal;text-indent:0;text-align:start;text-decoration-line:none;text-decoration-style:solid;text-decoration-color:#000;text-transform:none;block-progression:tb;isolation:auto;mix-blend-mode:normal" fill="#3b4659" d="M199.424 1065.84a.547.547 0 0 0-.54.555v5.076a.547.547 0 0 0 .792.49l1.02-.51 1.183 1.774a.547.547 0 1 0 .91-.608l-1.451-2.176a.547.547 0 0 0-.7-.185l-.66.33v-4.192a.547.547 0 0 0-.554-.554z" overflow="visible" transform="translate(-171.358 -968.638) scale(.91394)"></path><path style="line-height:normal;text-indent:0;text-align:start;text-decoration-line:none;text-decoration-style:solid;text-decoration-color:#000;text-transform:none;block-progression:tb;isolation:auto;mix-blend-mode:normal" fill="#3b4659" d="M202.326 1067.291a.547.547 0 0 0-.539.555v5.076a.547.547 0 1 0 1.094 0v-5.076a.547.547 0 0 0-.555-.555z" overflow="visible" transform="translate(-171.358 -968.638) scale(.91394)"></path></g></svg>